<?xml version="1.0" encoding="UTF-8" standalone="no"?>
<!-- Created with Inkscape (http://www.inkscape.org/) -->

<svg
   version="1.1"
   id="svg1"
   viewBox="59 65 273 273"
   sodipodi:docname="y8tba-sh8fo.ai"
   xmlns:inkscape="http://www.inkscape.org/namespaces/inkscape"
   xmlns:sodipodi="http://sodipodi.sourceforge.net/DTD/sodipodi-0.dtd"
   xmlns="http://www.w3.org/2000/svg"
   xmlns:svg="http://www.w3.org/2000/svg">
  <defs
     id="defs1" />
  <sodipodi:namedview
     id="namedview1"
     pagecolor="#ffffff"
     bordercolor="#000000"
     borderopacity="0.25"
     inkscape:showpageshadow="2"
     inkscape:pageopacity="0.0"
     inkscape:pagecheckerboard="0"
     inkscape:deskcolor="#d1d1d1">
    <inkscape:page
       x="0"
       y="0"
       inkscape:label="1"
       id="page1"
       width="400"
       height="400"
       margin="62.762535 71.533333 65.568001 63.025333"
       bleed="0" />
  </sodipodi:namedview>
  <g
     id="layer-MC0"
     inkscape:groupmode="layer"
     inkscape:label="Layer 1">
    <path
       id="path1"
       d="m 0,0 -1.67,16.32 -48.96,-5.009 1.67,-16.32 6.679,-65.281 16.32,1.67 -3.34,32.64 16.32,1.67 -1.669,16.32 -16.32,-1.67 -1.67,16.32 z"
       style="fill:#8cc13f;fill-opacity:1;fill-rule:nonzero;stroke:none"
       transform="matrix(1.3333333,0,0,-1.3333333,140.57173,106.2664)" />
    <path
       id="path2"
       d="m 0,0 32.81,0.203 0.102,-16.405 -32.81,-0.203 z"
       style="fill:#e1097f;fill-opacity:1;fill-rule:nonzero;stroke:none"
       transform="matrix(1.3333333,0,0,-1.3333333,163.9828,65.838267)" />
    <path
       id="path3"
       d="m 0,0 0.102,-16.405 -16.405,-0.102 0.101,-16.405 16.405,0.102 0.102,-16.405 -16.405,-0.102 0.101,-16.405 16.405,0.102 16.405,0.102 -0.101,16.405 -0.305,49.215 z"
       style="fill:#e1097f;fill-opacity:1;fill-rule:nonzero;stroke:none"
       transform="matrix(1.3333333,0,0,-1.3333333,207.8648,87.440933)" />
    <path
       id="path4"
       d="M 0,0 16.405,0.102 16.507,-16.303 0.102,-16.405 Z"
       style="fill:#e1097f;fill-opacity:1;fill-rule:nonzero;stroke:none"
       transform="matrix(1.3333333,0,0,-1.3333333,164.38893,131.4584)" />
    <path
       id="path5"
       d="m 0,0 -16.37,-1.069 1.068,-16.37 3.207,-49.112 16.37,1.069 -3.206,49.112 16.37,1.068 -1.069,16.371 z"
       style="fill:#8d2680;fill-opacity:1;fill-rule:nonzero;stroke:none"
       transform="matrix(1.3333333,0,0,-1.3333333,279.11213,98.041067)" />
    <path
       id="path6"
       d="M 0,0 16.37,1.069 19.577,-48.043 3.206,-49.111 Z"
       style="fill:#8d2680;fill-opacity:1;fill-rule:nonzero;stroke:none"
       transform="matrix(1.3333333,0,0,-1.3333333,302.3644,118.4432)" />
    <path
       id="path7"
       d="m 0,0 1.242,16.358 -16.358,1.243 1.243,16.358 -16.359,1.242 -1.242,-16.358 -16.358,1.243 -1.243,-16.359 16.359,-1.242 -2.485,-32.716 -1.243,-16.359 16.358,-1.242 16.359,-1.243 1.242,16.359 -16.358,1.242 2.485,32.716 z"
       style="fill:#00a098;fill-opacity:1;fill-rule:nonzero;stroke:none"
       transform="matrix(1.3333333,0,0,-1.3333333,128.45813,261.68827)" />
    <path
       id="path8"
       d="m 0,0 16.173,-2.754 -2.754,-16.172 -16.173,2.753 z"
       style="fill:#383877;fill-opacity:1;fill-rule:nonzero;stroke:none"
       transform="matrix(1.3333333,0,0,-1.3333333,182.47413,222.0772)" />
    <path
       id="path9"
       d="m 0,0 5.507,32.345 -16.172,2.754 -8.261,-48.518 16.172,-2.754 16.173,-2.753 2.754,16.172 z"
       style="fill:#383877;fill-opacity:1;fill-rule:nonzero;stroke:none"
       transform="matrix(1.3333333,0,0,-1.3333333,189.35093,312.0024)" />
    <path
       id="path10"
       d="M 0,0 32.64,3.34 34.31,-12.98 1.67,-16.32 Z"
       style="fill:#f05b26;fill-opacity:1;fill-rule:nonzero;stroke:none"
       transform="matrix(1.3333333,0,0,-1.3333333,238.37947,217.90293)" />
    <path
       id="path11"
       d="m 0,0 1.67,-16.32 -16.32,-1.67 1.67,-16.32 16.32,1.67 1.669,-16.32 -16.32,-1.67 1.67,-16.32 16.32,1.67 16.32,1.669 L 16.32,1.67 Z"
       style="fill:#f05b26;fill-opacity:1;fill-rule:nonzero;stroke:none"
       transform="matrix(1.3333333,0,0,-1.3333333,284.12613,235.21027)" />
    <path
       id="path12"
       d="M 0,0 16.32,1.67 17.99,-14.65 1.67,-16.32 Z"
       style="fill:#f05b26;fill-opacity:1;fill-rule:nonzero;stroke:none"
       transform="matrix(1.3333333,0,0,-1.3333333,245.05867,283.18347)" />
  </g>
</svg>
