<svg viewBox="0 0 40 40" xmlns="http://www.w3.org/2000/svg"><title>Pornhub</title><path d="m1,0l0,12.72266l0,0.00195l2.57031,0l0,-4.80078l1.67383,0c1.163,0 2.05202,-0.06064 2.66602,-0.18164c0.451,-0.098 0.89503,-0.29952 1.33203,-0.60352c0.436,-0.303 0.79708,-0.7209 1.08008,-1.2539c0.284,-0.533 0.42578,-1.18871 0.42578,-1.97071c0,-1.012 -0.24628,-1.83656 -0.73828,-2.47656c-0.492,-0.64 -1.10208,-1.05509 -1.83008,-1.24609c-0.475,-0.127 -1.49464,-0.19141 -3.05664,-0.19141l-4.12305,0zm2.57031,2.15234l1.24024,0c0.925,0 1.54161,0.02794 1.84961,0.08594c0.416,0.075 0.75925,0.26445 1.03125,0.56446c0.273,0.301 0.4082,0.68348 0.4082,1.14648c0,0.376 -0.09606,0.70528 -0.28906,0.98828c-0.194,0.284 -0.46074,0.492 -0.80274,0.625c-0.342,0.134 -1.01825,0.19922 -2.03125,0.19922l-1.40625,0l0,-3.60938zm13.45313,1.14454c-0.903,0 -1.72013,0.20061 -2.45313,0.59961c-0.732,0.399 -1.29726,0.97832 -1.69726,1.73632c-0.399,0.758 -0.59766,1.54157 -0.59766,2.35157c0,1.059 0.19961,1.95631 0.59961,2.69531c0.4,0.737 0.982,1.29769 1.75,1.67969c0.766,0.382 1.57102,0.57226 2.41602,0.57226c1.366,0 2.49843,-0.457 3.39843,-1.375c0.9,-0.918 1.34961,-2.07375 1.34961,-3.46875c0,-1.382 -0.44689,-2.52564 -1.33789,-3.43164c-0.891,-0.906 -2.03373,-1.35937 -3.42773,-1.35937zm10.9375,0c-0.394,0 -0.74569,0.09792 -1.05469,0.29492c-0.31,0.197 -0.65887,0.60561 -1.04687,1.22461l0,-1.31055l-2.26563,0l0,9.2168l2.4375,0l0,-2.84766c0,-1.568 0.06908,-2.59784 0.20508,-3.08984c0.136,-0.492 0.32355,-0.83153 0.56055,-1.01953c0.23799,-0.188 0.52518,-0.28125 0.86718,-0.28125c0.353,0 0.73549,0.13243 1.14649,0.39843l0.75586,-2.12695c-0.515,-0.306 -1.05047,-0.45898 -1.60547,-0.45898zm7.9414,0c-1.221,0 -2.23406,0.5215 -3.03906,1.5625l0,-1.35352l-2.26367,0l0,9.2168l2.4375,0l0,-4.17383c0,-1.03 0.0635,-1.73714 0.1875,-2.11914c0.124,-0.382 0.35445,-0.68792 0.68945,-0.91992c0.336,-0.231 0.71567,-0.34571 1.13867,-0.34571c0.33,0 0.61171,0.08019 0.84571,0.24219c0.235,0.162 0.40286,0.38964 0.50586,0.68164c0.104,0.293 0.1582,0.93664 0.1582,1.93164l0,4.70313l2.4375,0l0,-5.72657c0,-0.712 -0.04481,-1.25862 -0.13281,-1.64062c-0.09,-0.381 -0.24952,-0.72439 -0.47852,-1.02539c-0.229,-0.301 -0.56572,-0.54819 -1.01172,-0.74219c-0.445,-0.194 -0.93661,-0.29101 -1.47461,-0.29101zm-18.87109,1.98828c0.637,0 1.17056,0.24251 1.60156,0.72851c0.432,0.486 0.64649,1.18003 0.64649,2.08203c0,0.926 -0.21449,1.63314 -0.64649,2.11914c-0.43,0.486 -0.96456,0.72852 -1.60156,0.72852c-0.636,0 -1.17147,-0.24152 -1.60547,-0.72852c-0.435,-0.486 -0.65039,-1.18561 -0.65039,-2.0996c0,-0.914 0.21539,-1.61457 0.65039,-2.10157c0.434,-0.486 0.96947,-0.72851 1.60547,-0.72851zm-14.91016,10.18945c-1.17,0 -2.12109,0.95109 -2.12109,2.12109l0,19.75782c0,1.17 0.95109,2.12109 2.12109,2.12109l35.75782,0c1.17,0 2.12109,-0.95109 2.12109,-2.12109l0,-19.75782c0,-1.17 -0.95109,-2.12109 -2.12109,-2.12109l-35.75782,0zm5.00586,5.59766l2.16797,0l0,4.1582c0.7,-0.818 1.53581,-1.22656 2.50781,-1.22656c0.499,0 0.94957,0.09234 1.35157,0.27734c0.401,0.186 0.70325,0.42294 0.90625,0.71094c0.203,0.288 0.34297,0.60703 0.41797,0.95703c0.074,0.35 0.11132,0.89195 0.11132,1.62695l0,4.8086l-2.16796,0l0,-4.33008c0,-0.859 -0.043,-1.40377 -0.125,-1.63477c-0.08201,-0.231 -0.22755,-0.41673 -0.43555,-0.55273c-0.209,-0.136 -0.47021,-0.20508 -0.7832,-0.20508c-0.36,0 -0.68185,0.08867 -0.96485,0.26367c-0.283,0.175 -0.49009,0.43802 -0.62109,0.79102c-0.132,0.352 -0.19727,0.8735 -0.19727,1.5625l0,4.10351l-2.16797,0l0,-11.31054zm19.22266,0l2.16797,0l0,4.07422c0.669,-0.761 1.46095,-1.14258 2.37695,-1.14258c0.998,0 1.82452,0.36198 2.47852,1.08398c0.654,0.722 0.97851,1.76028 0.97851,3.11328c0,1.399 -0.33204,2.47838 -0.99804,3.23438c-0.666,0.756 -1.47674,1.13281 -2.42774,1.13281c-0.469,0 -0.93072,-0.11756 -1.38672,-0.35156c-0.455,-0.234 -0.84678,-0.57911 -1.17578,-1.03711l0,1.20312l-2.01367,0l0,-11.31054zm-9.60742,3.11718l2.16797,0l0,3.76563c0,1.153 0.03914,1.85914 0.11914,2.11914c0.08,0.26 0.2265,0.46519 0.4375,0.61719c0.211,0.152 0.47873,0.22656 0.80273,0.22656c0.37,0 0.7031,-0.10169 0.9961,-0.30469c0.29299,-0.203 0.49356,-0.45586 0.60156,-0.75586c0.108,-0.301 0.16211,-1.03793 0.16211,-2.21093l0,-3.45704l2.16797,0l0,8.19532l-2.01563,0l0,-1.22657c-0.298,0.438 -0.68878,0.78121 -1.17578,1.03321c-0.487,0.252 -0.99906,0.3789 -1.53906,0.3789c-0.551,0 -1.04542,-0.12128 -1.48242,-0.36328c-0.43701,-0.242 -0.75422,-0.58153 -0.94922,-1.01953c-0.196,-0.437 -0.29297,-1.0415 -0.29297,-1.8125l0,-5.18555zm13.57422,1.47266c-0.521,0 -0.95188,0.20342 -1.29688,0.60742c-0.345,0.404 -0.51758,1.01785 -0.51758,1.83985c0,0.849 0.13339,1.47681 0.40039,1.88281c0.376,0.576 0.8741,0.86328 1.4961,0.86328c0.479,0 0.88761,-0.20428 1.22461,-0.61328c0.337,-0.409 0.50586,-1.0536 0.50586,-1.9336c0,-0.936 -0.16977,-1.61139 -0.50977,-2.02539c-0.34,-0.414 -0.77273,-0.62109 -1.30273,-0.62109z"/></svg>